<svg xmlns="http://www.w3.org/2000/svg" xmlns:xlink="http://www.w3.org/1999/xlink" width="200" zoomAndPan="magnify" viewBox="0 0 375 374.999991" height="200" preserveAspectRatio="xMidYMid meet" version="1.0"><defs><g/><clipPath id="2fe43a1257"><path d="M 70.632812 89 L 256 89 L 256 324.511719 L 70.632812 324.511719 Z M 70.632812 89 " clip-rule="nonzero"/></clipPath><clipPath id="c425037698"><path d="M 99 29 L 285.132812 29 L 285.132812 265 L 99 265 Z M 99 29 " clip-rule="nonzero"/></clipPath></defs><g clip-path="url(#2fe43a1257)"><path fill="#010101" d="M 225.457031 265.914062 C 225.457031 236.652344 225.457031 207.835938 225.457031 179.015625 C 225.085938 178.875 224.714844 178.734375 224.34375 178.585938 C 209.011719 197.828125 193.675781 217.058594 177.785156 236.996094 C 172.132812 229.957031 166.714844 223.21875 160.816406 215.875 C 131.894531 252.199219 103.207031 288.21875 74.28125 324.550781 C 72.960938 323.492188 71.902344 322.648438 70.648438 321.644531 C 132.222656 244.273438 193.566406 167.1875 255.691406 89.121094 C 255.691406 148.792969 255.691406 207.210938 255.691406 265.914062 C 245.765625 265.914062 236.09375 265.914062 225.457031 265.914062 Z M 225.457031 265.914062 " fill-opacity="1" fill-rule="nonzero"/></g><g clip-path="url(#c425037698)"><path fill="#010101" d="M 99.894531 89.925781 C 122.367188 118.148438 144.132812 145.488281 166.386719 173.441406 C 168.078125 171.410156 169.5625 169.683594 170.980469 167.90625 C 206.667969 123.039062 242.34375 78.144531 278.089844 33.316406 C 279.667969 31.34375 281.160156 26.785156 285.097656 31.976562 C 240.238281 88.347656 195.347656 144.761719 149.9375 201.828125 C 143.609375 193.992188 137.582031 186.523438 130.851562 178.195312 C 130.597656 180.386719 130.320312 181.640625 130.320312 182.902344 C 130.296875 195.90625 130.457031 208.917969 130.1875 221.917969 C 130.128906 224.59375 129.125 227.703125 127.503906 229.808594 C 118.722656 241.273438 109.609375 252.488281 99.890625 264.691406 C 99.894531 206.121094 99.894531 148.660156 99.894531 89.925781 Z M 99.894531 89.925781 " fill-opacity="1" fill-rule="nonzero"/></g><g fill="#000000" fill-opacity="1"><g transform="translate(107.085657, 312.523919)"><g><path d="M 6.730469 0.179688 C 7.851562 0.179688 10.585938 0.179688 11.84375 0 C 12.5625 -0.0898438 13.144531 -0.582031 13.054688 -1.4375 C 12.785156 -4.128906 12.515625 -8.433594 12.5625 -11.035156 C 12.605469 -14.582031 13.054688 -16.554688 13.816406 -16.554688 C 14.761719 -16.554688 15.386719 -14.445312 16.0625 -11.753906 C 16.507812 -10.140625 17.046875 -8.34375 17.585938 -6.683594 C 18.257812 -4.664062 19.203125 -3.5 20.859375 -3.5 C 22.519531 -3.5 23.554688 -4.484375 24.226562 -6.683594 C 24.675781 -8.300781 25.214844 -9.960938 25.660156 -11.574219 C 26.425781 -14.402344 26.960938 -16.6875 27.949219 -16.6875 C 28.710938 -16.6875 29.160156 -14.761719 29.207031 -11.214844 C 29.25 -8.570312 29.027344 -4.171875 28.710938 -1.4375 C 28.621094 -0.582031 29.207031 -0.0898438 29.921875 0 C 31.179688 0.179688 33.960938 0.179688 35.128906 0.179688 C 36.25 0.179688 38.582031 0.132812 39.839844 0 C 40.554688 -0.0898438 41.09375 -0.628906 41.09375 -1.390625 C 40.824219 -12.15625 39.390625 -23.597656 38.449219 -30.28125 C 38.3125 -30.910156 37.820312 -31.3125 37.148438 -31.402344 C 35.710938 -31.539062 33.332031 -31.582031 32.078125 -31.582031 C 30.820312 -31.582031 28.578125 -31.539062 27.320312 -31.402344 C 26.246094 -31.269531 25.527344 -30.820312 25.214844 -29.65625 C 24.765625 -28.128906 24.046875 -25.035156 23.417969 -22.519531 C 22.65625 -19.875 21.804688 -17.8125 20.90625 -17.8125 C 19.964844 -17.8125 19.066406 -19.875 18.257812 -22.746094 C 17.675781 -24.988281 17.003906 -28.175781 16.597656 -29.65625 C 16.242188 -30.820312 15.523438 -31.269531 14.445312 -31.402344 C 13.191406 -31.539062 10.945312 -31.582031 9.644531 -31.582031 C 8.390625 -31.582031 5.878906 -31.539062 4.621094 -31.402344 C 3.949219 -31.3125 3.453125 -30.910156 3.320312 -30.28125 C 2.378906 -23.644531 0.941406 -12.15625 0.671875 -1.390625 C 0.671875 -0.628906 1.210938 -0.0898438 1.929688 0 C 3.230469 0.132812 5.5625 0.179688 6.730469 0.179688 Z M 6.730469 0.179688 "/></g></g></g><g fill="#000000" fill-opacity="1"><g transform="translate(148.850426, 312.523919)"><g><path d="M 17.09375 0.359375 C 26.960938 0.359375 33.648438 -3.363281 33.648438 -14.355469 C 33.648438 -25.214844 27.007812 -31.761719 17.09375 -31.761719 C 7.222656 -31.71875 0.539062 -25.214844 0.539062 -14.355469 C 0.539062 -3.363281 7.269531 0.359375 17.09375 0.359375 Z M 17.09375 -8.839844 C 14.3125 -8.839844 12.382812 -10.496094 12.382812 -14.804688 C 12.382812 -19.15625 14.222656 -22.566406 17.09375 -22.566406 C 19.964844 -22.566406 21.804688 -19.203125 21.804688 -14.804688 C 21.804688 -10.496094 19.875 -8.839844 17.09375 -8.839844 Z M 17.09375 -8.839844 "/></g></g></g><g fill="#000000" fill-opacity="1"><g transform="translate(183.033834, 312.523919)"><g><path d="M 6.820312 0.179688 C 8.300781 0.179688 10.675781 0.132812 12.15625 0 C 12.921875 -0.0898438 13.59375 -0.671875 13.414062 -1.4375 C 12.964844 -4.351562 12.472656 -7.625 12.5625 -10.765625 C 12.5625 -12.066406 13.144531 -12.875 13.90625 -12.652344 C 16.644531 -11.753906 18.664062 -6.730469 18.707031 -1.300781 C 18.707031 -0.539062 19.292969 -0.0898438 20.007812 0 C 21.308594 0.132812 24.089844 0.179688 25.347656 0.179688 C 26.605469 0.179688 29.160156 0.132812 30.597656 0 C 31.359375 -0.0898438 31.941406 -0.671875 31.898438 -1.4375 C 31.3125 -9.554688 26.785156 -13.773438 20.636719 -14.625 C 19.695312 -14.761719 19.695312 -15.523438 20.59375 -15.65625 C 26.46875 -16.6875 30.28125 -20.097656 30.28125 -24.496094 C 30.28125 -29.296875 25.75 -31.628906 17.542969 -31.628906 C 11.574219 -31.628906 6.550781 -31.628906 3.273438 -31.449219 C 2.648438 -31.402344 2.109375 -30.910156 2.0625 -30.28125 C 1.570312 -24.046875 0.898438 -10.8125 0.898438 -1.257812 C 0.898438 -0.582031 1.480469 -0.0898438 2.152344 0 C 3.320312 0.132812 5.472656 0.179688 6.820312 0.179688 Z M 14.085938 -16.867188 C 13.28125 -16.644531 12.695312 -16.824219 12.652344 -17.722656 C 12.605469 -19.023438 12.652344 -20.324219 12.695312 -21.535156 C 12.695312 -22.253906 13.101562 -22.746094 13.816406 -22.789062 C 14.222656 -22.835938 14.625 -22.835938 15.117188 -22.835938 C 17.675781 -22.835938 19.066406 -22.074219 19.066406 -20.457031 C 19.066406 -18.84375 17.316406 -17.496094 14.085938 -16.867188 Z M 14.085938 -16.867188 "/></g></g></g><g fill="#000000" fill-opacity="1"><g transform="translate(215.557411, 312.523919)"><g><path d="M 15.613281 0.359375 C 26.289062 0.359375 32.300781 -3.632812 32.300781 -13.996094 C 32.300781 -25.257812 24.855469 -31.582031 14.132812 -31.582031 C 10.632812 -31.582031 6.550781 -31.582031 3.320312 -31.402344 C 2.601562 -31.359375 2.109375 -30.867188 2.0625 -30.238281 C 1.523438 -23.554688 0.898438 -12.066406 0.898438 -1.390625 C 0.898438 -0.628906 1.4375 -0.0429688 2.109375 0 C 4.53125 0.179688 11.574219 0.359375 15.613281 0.359375 Z M 14.175781 -9.464844 C 13.191406 -9.464844 12.605469 -10.140625 12.5625 -11.394531 C 12.515625 -14.265625 12.472656 -18.035156 12.5625 -20.90625 C 12.605469 -21.894531 13.144531 -22.519531 13.996094 -22.566406 L 15.164062 -22.566406 C 18.664062 -22.566406 20.90625 -19.558594 20.90625 -14.535156 C 20.90625 -10.945312 18.574219 -9.421875 15.613281 -9.421875 C 15.117188 -9.421875 14.625 -9.421875 14.175781 -9.464844 Z M 14.175781 -9.464844 "/></g></g></g></svg>