<svg xmlns="http://www.w3.org/2000/svg" xmlns:xlink="http://www.w3.org/1999/xlink" width="200" zoomAndPan="magnify" viewBox="0 0 375 374.999991" height="200" preserveAspectRatio="xMidYMid meet" version="1.0"><defs><g/><clipPath id="3e8c17bdde"><path d="M 8.074219 57.925781 L 224.074219 57.925781 L 224.074219 317.425781 L 8.074219 317.425781 Z M 8.074219 57.925781 " clip-rule="nonzero"/></clipPath></defs><g clip-path="url(#3e8c17bdde)"><path fill="#000000" d="M 116.339844 57.925781 L 89.765625 155.867188 L 8.09375 173.097656 L 73.339844 219.070312 L 48.875 317.429688 L 115.828125 228.699219 L 72.839844 273.398438 L 88.5625 210.1875 L 46.617188 180.640625 L 99.117188 169.570312 L 116.195312 106.601562 L 132.917969 162.992188 L 224.023438 131.058594 L 142.34375 145.628906 L 116.339844 57.925781 " fill-opacity="1" fill-rule="nonzero"/></g><g fill="#000000" fill-opacity="1"><g transform="translate(127.46484, 224.456073)"><g><path d="M 40.625 -53.625 C 42.519531 -53.625 43.863281 -53.410156 44.65625 -52.984375 C 45.457031 -52.554688 45.859375 -51.835938 45.859375 -50.828125 L 45.859375 -38.671875 C 45.859375 -37.671875 45.539062 -36.957031 44.90625 -36.53125 C 44.269531 -36.101562 43.226562 -35.890625 41.78125 -35.890625 C 40.8125 -35.890625 40.046875 -36.003906 39.484375 -36.234375 C 38.921875 -36.472656 38.472656 -36.828125 38.140625 -37.296875 C 36.753906 -39.492188 34.96875 -41.191406 32.78125 -42.390625 C 30.59375 -43.585938 28.0625 -44.1875 25.1875 -44.1875 C 23.03125 -44.1875 21.335938 -43.632812 20.109375 -42.53125 C 18.890625 -41.4375 18.28125 -40.019531 18.28125 -38.28125 C 18.28125 -37.425781 18.546875 -36.722656 19.078125 -36.171875 C 19.609375 -35.628906 20.375 -35.148438 21.375 -34.734375 C 22.675781 -34.234375 24.910156 -33.710938 28.078125 -33.171875 C 31.148438 -32.585938 33.660156 -32.035156 35.609375 -31.515625 C 37.566406 -30.992188 39.40625 -30.203125 41.125 -29.140625 C 45.851562 -26.273438 48.21875 -21.648438 48.21875 -15.265625 C 48.21875 -12.003906 47.53125 -9.160156 46.15625 -6.734375 C 44.78125 -4.316406 42.71875 -2.425781 39.96875 -1.0625 C 37.21875 0.289062 33.832031 0.96875 29.8125 0.96875 C 24.875 0.96875 20.6875 -0.519531 17.25 -3.5 L 17.25 -1.8125 C 17.25 -0.8125 16.882812 -0.0976562 16.15625 0.328125 C 15.4375 0.753906 14.144531 0.96875 12.28125 0.96875 C 10.394531 0.96875 9.050781 0.753906 8.25 0.328125 C 7.445312 -0.0976562 7.046875 -0.8125 7.046875 -1.8125 L 7.046875 -16.640625 C 7.046875 -17.640625 7.363281 -18.351562 8 -18.78125 C 8.632812 -19.207031 9.679688 -19.421875 11.140625 -19.421875 C 12.171875 -19.421875 12.988281 -19.285156 13.59375 -19.015625 C 14.195312 -18.753906 14.664062 -18.300781 15 -17.65625 C 16.59375 -14.601562 18.5 -12.304688 20.71875 -10.765625 C 22.9375 -9.234375 25.523438 -8.46875 28.484375 -8.46875 C 31.078125 -8.46875 33.054688 -9 34.421875 -10.0625 C 35.785156 -11.132812 36.46875 -12.613281 36.46875 -14.5 C 36.46875 -15.6875 36.160156 -16.6875 35.546875 -17.5 C 34.941406 -18.3125 34.0625 -19 32.90625 -19.5625 C 31.96875 -20.03125 30.925781 -20.410156 29.78125 -20.703125 C 28.644531 -21.003906 26.96875 -21.394531 24.75 -21.875 C 22.207031 -22.40625 20.109375 -22.890625 18.453125 -23.328125 C 16.796875 -23.773438 15.242188 -24.382812 13.796875 -25.15625 C 11.546875 -26.332031 9.785156 -27.90625 8.515625 -29.875 C 7.242188 -31.84375 6.609375 -34.394531 6.609375 -37.53125 C 6.609375 -40.664062 7.332031 -43.453125 8.78125 -45.890625 C 10.226562 -48.328125 12.257812 -50.222656 14.875 -51.578125 C 17.5 -52.941406 20.492188 -53.625 23.859375 -53.625 C 26.222656 -53.625 28.410156 -53.238281 30.421875 -52.46875 C 32.441406 -51.707031 34.1875 -50.613281 35.65625 -49.1875 L 35.65625 -50.828125 C 35.65625 -51.835938 36.019531 -52.554688 36.75 -52.984375 C 37.476562 -53.410156 38.769531 -53.625 40.625 -53.625 Z M 40.625 -53.625 "/></g></g></g><g fill="#000000" fill-opacity="1"><g transform="translate(181.935601, 224.456073)"><g><path d="M 47.234375 -52.65625 C 48.273438 -52.65625 49.015625 -52.429688 49.453125 -51.984375 C 49.898438 -51.546875 50.125 -50.804688 50.125 -49.765625 L 50.125 -31.046875 C 50.125 -30.078125 49.71875 -29.367188 48.90625 -28.921875 C 48.09375 -28.472656 46.84375 -28.25 45.15625 -28.25 C 43.53125 -28.25 42.398438 -28.460938 41.765625 -28.890625 C 41.128906 -29.328125 40.8125 -30.046875 40.8125 -31.046875 L 40.8125 -43.109375 L 32.78125 -43.109375 L 32.78125 -9.09375 L 42.359375 -9.09375 C 43.066406 -9.09375 43.613281 -8.96875 44 -8.71875 C 44.382812 -8.46875 44.671875 -8.015625 44.859375 -7.359375 C 45.054688 -6.710938 45.15625 -5.769531 45.15625 -4.53125 C 45.15625 -3.28125 45.054688 -2.328125 44.859375 -1.671875 C 44.671875 -1.023438 44.382812 -0.582031 44 -0.34375 C 43.613281 -0.113281 43.066406 0 42.359375 0 L 12.109375 0 C 11.398438 0 10.851562 -0.113281 10.46875 -0.34375 C 10.082031 -0.582031 9.789062 -1.023438 9.59375 -1.671875 C 9.40625 -2.328125 9.3125 -3.28125 9.3125 -4.53125 C 9.3125 -5.769531 9.40625 -6.710938 9.59375 -7.359375 C 9.789062 -8.015625 10.082031 -8.46875 10.46875 -8.71875 C 10.851562 -8.96875 11.398438 -9.09375 12.109375 -9.09375 L 21.6875 -9.09375 L 21.6875 -43.109375 L 13.65625 -43.109375 L 13.65625 -31.046875 C 13.65625 -30.078125 13.25 -29.367188 12.4375 -28.921875 C 11.625 -28.472656 10.375 -28.25 8.6875 -28.25 C 7.0625 -28.25 5.929688 -28.460938 5.296875 -28.890625 C 4.660156 -29.328125 4.34375 -30.046875 4.34375 -31.046875 L 4.34375 -49.765625 C 4.34375 -50.804688 4.570312 -51.546875 5.03125 -51.984375 C 5.488281 -52.429688 6.222656 -52.65625 7.234375 -52.65625 Z M 47.234375 -52.65625 "/></g></g></g><g fill="#000000" fill-opacity="1"><g transform="translate(236.406362, 224.456073)"><g><path d="M 28.828125 -52.65625 C 35.066406 -52.65625 39.859375 -51.28125 43.203125 -48.53125 C 46.546875 -45.78125 48.21875 -41.785156 48.21875 -36.546875 C 48.21875 -29.710938 44.550781 -25.410156 37.21875 -23.640625 C 38.8125 -23.023438 40.082031 -22.109375 41.03125 -20.890625 C 41.65625 -20.085938 42.222656 -19.25 42.734375 -18.375 C 43.253906 -17.507812 43.851562 -16.410156 44.53125 -15.078125 C 45.238281 -13.660156 45.785156 -12.640625 46.171875 -12.015625 C 46.765625 -11.046875 47.359375 -10.316406 47.953125 -9.828125 C 48.546875 -9.335938 49.210938 -9.09375 49.953125 -9.09375 L 50.796875 -9.09375 C 51.503906 -9.09375 52.046875 -8.96875 52.421875 -8.71875 C 52.804688 -8.46875 53.09375 -8.015625 53.28125 -7.359375 C 53.476562 -6.710938 53.578125 -5.769531 53.578125 -4.53125 C 53.578125 -3.28125 53.476562 -2.328125 53.28125 -1.671875 C 53.09375 -1.023438 52.804688 -0.582031 52.421875 -0.34375 C 52.046875 -0.113281 51.503906 0 50.796875 0 L 46.484375 0 C 44.148438 0 42.257812 -0.472656 40.8125 -1.421875 C 39.363281 -2.367188 38.03125 -3.953125 36.8125 -6.171875 C 36.21875 -7.203125 35.507812 -8.617188 34.6875 -10.421875 C 34.09375 -11.785156 33.53125 -12.960938 33 -13.953125 C 32.46875 -14.941406 31.878906 -15.910156 31.234375 -16.859375 C 30.316406 -18.128906 29.296875 -19.046875 28.171875 -19.609375 C 27.046875 -20.171875 25.695312 -20.453125 24.125 -20.453125 L 21.296875 -20.453125 L 21.296875 -9.09375 L 25.59375 -9.09375 C 26.300781 -9.09375 26.847656 -8.96875 27.234375 -8.71875 C 27.617188 -8.46875 27.90625 -8.015625 28.09375 -7.359375 C 28.289062 -6.710938 28.390625 -5.769531 28.390625 -4.53125 C 28.390625 -3.28125 28.289062 -2.328125 28.09375 -1.671875 C 27.90625 -1.023438 27.617188 -0.582031 27.234375 -0.34375 C 26.847656 -0.113281 26.300781 0 25.59375 0 L 5.453125 0 C 4.742188 0 4.195312 -0.113281 3.8125 -0.34375 C 3.425781 -0.582031 3.132812 -1.023438 2.9375 -1.671875 C 2.75 -2.328125 2.65625 -3.28125 2.65625 -4.53125 C 2.65625 -5.769531 2.75 -6.710938 2.9375 -7.359375 C 3.132812 -8.015625 3.425781 -8.46875 3.8125 -8.71875 C 4.195312 -8.96875 4.742188 -9.09375 5.453125 -9.09375 L 10.203125 -9.09375 L 10.203125 -43.5625 L 5.453125 -43.5625 C 4.742188 -43.5625 4.195312 -43.675781 3.8125 -43.90625 C 3.425781 -44.144531 3.132812 -44.585938 2.9375 -45.234375 C 2.75 -45.890625 2.65625 -46.835938 2.65625 -48.078125 C 2.65625 -49.328125 2.75 -50.273438 2.9375 -50.921875 C 3.132812 -51.566406 3.425781 -52.015625 3.8125 -52.265625 C 4.195312 -52.523438 4.742188 -52.65625 5.453125 -52.65625 Z M 21.296875 -29.984375 L 27.90625 -29.984375 C 30.914062 -29.984375 33.144531 -30.519531 34.59375 -31.59375 C 36.039062 -32.675781 36.765625 -34.328125 36.765625 -36.546875 C 36.765625 -38.765625 36.039062 -40.410156 34.59375 -41.484375 C 33.144531 -42.566406 30.914062 -43.109375 27.90625 -43.109375 L 21.296875 -43.109375 Z M 21.296875 -29.984375 "/></g></g></g></svg>